{"title":"Chappie 2015 CAMRiP XviD MP3 Idiocracy","uid":11747875,"size":890607616,"categoryP":"video","categoryS":"movies","magnet":"?xt=urn:btih:4913e1cb09cf5b343308c41eb47384ab822842fc&amp;dn=Chappie+2015+CAMRiP+XviD+MP3+Idiocracy&amp;tr=udp%3A%2F%2Ftracker.openbittorrent.com%3A80&amp;tr=udp%3A%2F%2Fopen.demonii.com%3A1337&amp;tr=udp%3A%2F%2Ftracker.coppersurfer.tk%3A6969&amp;tr=udp%3A%2F%2Fexodus.desync.com%3A6969","seeders":1,"leechers":0,"uploader":"Satafakap","files":2,"time":1426094786,"description":"Synopsis / Plot\n\nIn the near future, crime is patrolled by a mechanized police force. When one police droid, Chappie, is stolen and given new programming, he becomes the first robot with the ability to think and feel for himself.\n\nDirector: Neill Blomkamp\nWriters: Neill Blomkamp, Terri Tatchell\nStars: Sharlto Copley, Dev Patel, Hugh Jackman  \n &lt;a href=&quot;\nhttp://www.imdb.com/title/tt1823672/&quot; rel=&quot;nofollow&quot; target=&quot;_NEW&quot;&gt;\nhttp://www.imdb.com/title/tt1823672/&lt;/a&gt;\n\nGeneral\n\nComplete name         : Chappie.2015CAMRiP.XviD.MP3-Idiocracy.avi\nFormat                : AVI\nFormat/Info           : Audio Video Interleave\nFile size             : 841 MiB\nDuration              : 1h 53mn\nOverall bit rate      : 1 041 Kbps\nWriting application   : VirtualDubMod 1.5.10.3 | www.virtualdub-fr.org\nWriting library       : VirtualDubMod build 2550/release\nSource                : Chappie 2015 RU CAMRiP XviD AC3 MURD3R - video - Thanks!\n\t\t\tchappie_2015(camrip)_pinoylibangan - audio - Thanks!\nSample                : Yes\n\nVideo\n\nID                                       : 0\nFormat                                   : MPEG-4 Visual\nFormat profile                           : Advanced Simple@L5\nFormat settings, BVOP                    : 2\nFormat settings, QPel                    : No\nFormat settings, GMC                     : No warppoints\nFormat settings, Matrix                  : Default (H.263)\nMuxing mode                              : Packed bitstream\nCodec ID                                 : XVID\nCodec ID/Hint                            : XviD\nDuration                                 : 1h 53mn\nBit rate                                 : 903 Kbps\nWidth                                    : 640 pixels\nHeight                                   : 352 pixels\nDisplay aspect ratio                     : 16:9\nOriginal display aspect ratio            : 16:9\nFrame rate                               : 23.976 fps\nColor space                              : YUV\nChroma subsampling                       : 4:2:0\nBit depth                                : 8 bits\nScan type                                : Progressive\nCompression mode                         : Lossy\nBits/(Pixel*Frame)                       : 0.167\nStream size                              : 730 MiB (87%)\nWriting library                          : XviD 64\n\nAudio\n\nID                                       : 1\nFormat                                   : MPEG Audio\nFormat version                           : Version 1\nFormat profile                           : Layer 3\nCodec ID                                 : 55\nCodec ID/Hint                            : MP3\nDuration                                 : 1h 52mn\nBit rate mode                            : Constant\nBit rate                                 : 128 Kbps\nChannel(s)                               : 1 channel\nSampling rate                            : 44.1 KHz\nCompression mode                         : Lossy\nStream size                              : 103 MiB (12%)\nAlignment                                : Split accross interleaves\nInterleave, duration                     : 42 ms (1.00 video frame)\nInterleave, preload duration             : 500 ms\nWriting library                          : LAME3.99r\nEncoding settings                        : -m m -V 4 -q 0 -lowpass 20.5 -b 128\n\nScreenshots:\n &lt;a href=&quot;\nhttp://i.imgur.com/Ao77vuJ.jpg&quot; rel=&quot;nofollow&quot; target=&quot;_NEW&quot;&gt;\nhttp://i.imgur.com/Ao77vuJ.jpg&lt;/a&gt;\n &lt;a href=&quot;\nhttp://i.imgur.com/UXk4Keh.jpg&quot; rel=&quot;nofollow&quot; target=&quot;_NEW&quot;&gt;\nhttp://i.imgur.com/UXk4Keh.jpg&lt;/a&gt;\n &lt;a href=&quot;\nhttp://i.imgur.com/9SEIMdp.jpg&quot; rel=&quot;nofollow&quot; target=&quot;_NEW&quot;&gt;\nhttp://i.imgur.com/9SEIMdp.jpg&lt;/a&gt;\n &lt;a href=&quot;\nhttp://i.imgur.com/wzbFvoL.jpg&quot; rel=&quot;nofollow&quot; target=&quot;_NEW&quot;&gt;\nhttp://i.imgur.com/wzbFvoL.jpg&lt;/a&gt;\n &lt;a href=&quot;\nhttp://i.imgur.com/K4M9OzH.jpg&quot; rel=&quot;nofollow&quot; target=&quot;_NEW&quot;&gt;\nhttp://i.imgur.com/K4M9OzH.jpg&lt;/a&gt;","torrent":{"xt":"urn:btih:4913e1cb09cf5b343308c41eb47384ab822842fc","amp;dn":"Chappie+2015+CAMRiP+XviD+MP3+Idiocracy","amp;tr":["udp%3A%2F%2Ftracker.openbittorrent.com%3A80","udp%3A%2F%2Fopen.demonii.com%3A1337","udp%3A%2F%2Ftracker.coppersurfer.tk%3A6969","udp%3A%2F%2Fexodus.desync.com%3A6969"],"infoHash":"4913e1cb09cf5b343308c41eb47384ab822842fc","infoHashBuffer":{"type":"Buffer","data":[73,19,225,203,9,207,91,52,51,8,196,30,180,115,132,171,130,40,66,252]},"announce":[],"urlList":[]}}